<region>
sample=../Samples/Flutes/flutes-stc-rr2-c3.wav
lokey=c4
hikey=c#4
pitch_keycenter=c4

<region>
sample=../Samples/Flutes/flutes-stc-rr2-d#3.wav
lokey=d4
hikey=e4
pitch_keycenter=d#4

<region>
sample=../Samples/Flutes/flutes-stc-rr2-f#3.wav
lokey=f4
hikey=g4
pitch_keycenter=f#4

<region>
sample=../Samples/Flutes/flutes-stc-rr2-a3.wav
lokey=g#4
hikey=a#4
pitch_keycenter=a4
volume=2

<region>
sample=../Samples/Flutes/flutes-stc-rr2-c4.wav
lokey=b4
hikey=c#5
pitch_keycenter=c5

<region>
sample=../Samples/Flutes/flutes-stc-rr2-d#4.wav
lokey=d5
hikey=e5
pitch_keycenter=d#5
volume=2

<region>
sample=../Samples/Flutes/flutes-stc-rr2-f#4.wav
lokey=f5
hikey=g5
pitch_keycenter=f#5

<region>
sample=../Samples/Flutes/flutes-stc-rr2-a4.wav
lokey=g#5
hikey=a#5
pitch_keycenter=a5
volume=2

<region>
//sample=../Samples/Flutes/flutes-stc-rr2-c5.wav
sample=../Samples/Flutes/flutes-stc-rr1-c5.wav
transpose=0
lokey=b5
hikey=c#6
pitch_keycenter=c6

<region>
sample=../Samples/Flutes/flutes-stc-rr2-d#5.wav
lokey=d6
hikey=e6
pitch_keycenter=d#6

<region>
sample=../Samples/Flutes/flutes-stc-rr2-f#5.wav
lokey=f6
hikey=g6
pitch_keycenter=f#6
volume=1

<region>
sample=../Samples/Flutes/flutes-stc-rr2-a5.wav
lokey=g#6
hikey=c7
pitch_keycenter=a6
volume=1
